PathFileType	4	(x/y/z)	S05_P20_T07
DataRate	CameraRate	NumFrames	NumMarkers	Units	OrigDataRate	OrigDataStartFrame	OrigNumFrames
240	240	9	50	mm	240	48	376
Frame#	Time	Sternum			R.Acromium			L.Acromium			Top.Head			R.ASIS			L.ASIS			R.PSIS			L.PSIS			R.Great.Tro			L.Great.Tro			R.Iliac.Crest			L.Iliac.Crest			V.Sacral			R.Thigh.Upper.Post			R.Thigh.Lower.Ant			R.Thigh.Lower.Post			R.Thigh.Upper.Ant			R.Knee.Lat			R.Knee.Med			R.Shank.Upper.Post			R.Shank.Lower.Ant			R.Shank.Lower.Post			R.Shank.Upper.Ant			R.Ankle.Lat			R.Ankle.Med			R.Heel.Upper			R.Heel.Med			R.Heel.Lat			R.Toe.Lat			R.Toe.Med			R.Toe.Tip			L.Thigh.Upper.Post			L.Thigh.Lower.Ant			L.Thigh.Lower.Post			L.Thigh.Upper.Ant			L.Knee.Lat			L.Shank.Upper.Post			L.Shank.Lower.Ant			L.Shank.Lower.Post			L.Shank.Upper.Ant			L.Ankle.Lat			L.Ankle.Med			L.Heel.Upper			L.Heel.Med			L.Heel.Lat			L.Toe.Lat			L.Toe.Med			L.Toe.Tip			Cervical.Spine			Back			
		X1	Y1	Z1	X2	Y2	Z2	X3	Y3	Z3	X4	Y4	Z4	X5	Y5	Z5	X6	Y6	Z6	X7	Y7	Z7	X8	Y8	Z8	X9	Y9	Z9	X10	Y10	Z10	X11	Y11	Z11	X12	Y12	Z12	X13	Y13	Z13	X14	Y14	Z14	X15	Y15	Z15	X16	Y16	Z16	X17	Y17	Z17	X18	Y18	Z18	X19	Y19	Z19	X20	Y20	Z20	X21	Y21	Z21	X22	Y22	Z22	X23	Y23	Z23	X24	Y24	Z24	X25	Y25	Z25	X26	Y26	Z26	X27	Y27	Z27	X28	Y28	Z28	X29	Y29	Z29	X30	Y30	Z30	X31	Y31	Z31	X32	Y32	Z32	X33	Y33	Z33	X34	Y34	Z34	X35	Y35	Z35	X36	Y36	Z36	X37	Y37	Z37	X38	Y38	Z38	X39	Y39	Z39	X40	Y40	Z40	X41	Y41	Z41	X42	Y42	Z42	X43	Y43	Z43	X44	Y44	Z44	X45	Y45	Z45	X46	Y46	Z46	X47	Y47	Z47	X48	Y48	Z48	X49	Y49	Z49	X50	Y50	Z50	

48	0.19583	-1118.7	1252	321.58	-1200.2	1523.2	463.83	-1209.9	1522.1	132.47	-1213.8	1818.7	262.45	-1201.4	1007.4	453.46	NaN	NaN	NaN	-1398.3	1019.7	360.15	-1397.9	1026.8	267.59	-1278.6	923.15	514.08	-1266.5	934.84	125.55	-1292.5	1089.7	488.85	-1276.6	1088.7	154.55	-1406.1	986.55	325.69	-1163.9	716.08	521.39	-1093.1	659.46	473.61	-1150.2	627.73	504.06	-1111.7	746.5	489.14	-1144.8	532.76	489.04	-1125.3	518.79	355.98	-1348.3	403.84	455.12	-1348.8	314.44	455.78	-1397.1	344.03	434.96	-1292.6	367.85	473.99	-1431.8	251.81	430.6	-1396	262.42	345.72	-1507	256.97	356.84	-1512.4	224.77	327.56	-1526.8	232.36	390.76	-1418.6	116.06	465.09	-1367	97.177	354.81	NaN	NaN	NaN	-1223	697.9	135	-1130.1	639.72	155.06	-1196.8	607.51	152.03	-1148.9	727.13	137.18	-1167.4	520.87	159.54	-1230.5	319.96	165.89	-1162.3	261.78	169.5	-1232.1	248.69	185.33	-1165.5	331.65	155.04	-1203.4	111.66	197.5	-1167.2	129.89	281.23	-1259.2	66.125	255.89	-1246.6	42.375	286.71	-1258.5	38.963	226.59	-1080.2	38.449	159.9	-1050.3	54.559	276.86	-990.36	65.011	217.66	-1260.4	1564	302.13	-1389.3	1294.4	316.06
49	0.2	-1113.3	1253	321.34	-1194.7	1524.2	463.57	-1204.2	1523.3	132.27	-1208	1819.7	262.5	-1195.8	1008.7	452.92	NaN	NaN	NaN	-1392.9	1020.8	359.99	-1392.6	1027.9	267.44	-1272.6	924.5	513.88	-1261.8	935.62	125.33	-1287	1091	488.43	-1271.3	1089.6	154.18	-1400.8	987.63	325.57	-1155.6	718.49	520.87	-1084.5	662.66	472.63	-1141	630.24	503.48	-1103.8	749.49	488.29	-1134.8	535.12	488.36	-1115.4	521.55	355.43	-1336.2	402.56	454.69	-1334.7	313.19	455.24	-1384.1	341.98	434.56	-1280.3	367.72	473.5	-1416.7	249	430.27	-1381.9	260.94	345.2	-1492.9	252.66	356.82	-1497.6	220.22	327.55	-1511.9	227.56	390.79	-1400.4	113.91	464.68	-1348.9	96.449	354.07	-1296.3	79.057	409.83	-1219.9	698.43	134.94	-1127.5	639.59	154.97	-1194.3	607.86	151.97	-1145.7	727.15	137.05	-1165.7	520.93	159.54	-1229.7	320.24	166.08	-1161.7	261.78	169.49	-1231.5	249.02	185.51	-1164.8	331.71	155.03	-1203.2	111.8	197.58	-1167	129.92	281.3	-1259.2	66.301	255.96	-1246.7	42.645	286.84	-1258.4	39.149	226.6	-1080.2	38.448	159.91	-1050.3	54.433	276.9	-990.28	64.824	217.68	-1254.8	1565.1	301.87	-1383.8	1295.4	315.47
50	0.20417	-1107.9	1254	321.1	-1189.2	1525.1	463.32	-1198.4	1524.5	132.09	-1202.2	1820.8	262.6	-1190.2	1010	452.39	NaN	NaN	NaN	-1387.5	1021.9	359.83	-1387.2	1028.9	267.28	-1266.6	925.85	513.69	-1257.1	936.39	125.12	-1281.4	1092.3	488.03	-1266.1	1090.4	153.82	-1395.5	988.73	325.45	-1147.5	720.89	520.34	-1076	665.84	471.64	-1132	632.76	502.89	-1096	752.45	487.44	-1125.1	537.47	487.65	-1105.8	524.28	354.87	-1324.1	401.01	454.25	-1320.4	311.72	454.69	-1370.9	339.68	434.13	-1267.9	367.43	473.01	-1401.4	245.88	429.93	-1367.7	259.15	344.71	-1478.6	247.94	356.81	-1482.6	215.28	327.53	-1496.7	222.34	390.81	-1381.9	111.54	464.32	-1330.5	95.525	353.41	-1279.1	78.97	409.26	-1216.8	698.97	134.89	-1124.9	639.45	154.91	-1191.8	608.22	151.94	-1142.4	727.17	136.96	-1164	521	159.56	-1228.9	320.51	166.27	-1161.1	261.8	169.49	-1230.9	249.36	185.7	-1164	331.78	155.04	-1203	111.95	197.67	-1166.8	129.95	281.38	-1259.3	66.487	256.02	-1246.8	42.931	286.96	-1258.3	39.335	226.61	-1080.2	38.448	159.92	-1050.2	54.308	276.95	-990.2	64.638	217.71	-1249.3	1566.1	301.61	-1378.3	1296.4	314.88
51	0.20833	-1102.5	1255.1	320.87	-1183.7	1526.1	463.08	-1192.6	1525.7	131.93	-1196.4	1821.8	262.75	-1184.6	1011.3	451.87	NaN	NaN	NaN	-1382.1	1023	359.67	-1381.9	1030	267.13	-1260.6	927.21	513.51	-1252.3	937.16	124.93	-1275.8	1093.5	487.63	-1260.9	1091.3	153.48	-1390.1	989.84	325.34	-1139.4	723.27	519.79	-1067.6	668.96	470.64	-1123.2	635.27	502.28	-1088.3	755.34	486.59	-1115.6	539.8	486.92	-1096.4	526.97	354.28	-1312	399.22	453.78	-1306.1	310.06	454.14	-1357.8	337.13	433.68	-1255.5	366.98	472.51	-1385.9	242.49	429.61	-1353.2	257.08	344.24	-1463.9	242.86	356.78	-1467.3	209.97	327.49	-1481.1	216.75	390.83	-1363.2	108.97	464.02	-1311.7	94.428	352.83	-1261.1	78.895	408.73	-1213.7	699.51	134.86	-1122.4	639.32	154.89	-1189.3	608.59	151.92	-1139.2	727.19	136.91	-1162.4	521.08	159.6	-1228.1	320.79	166.45	-1160.5	261.83	169.51	-1230.4	249.69	185.87	-1163.3	331.85	155.05	-1202.8	112.1	197.75	-1166.6	129.99	281.46	-1259.3	66.685	256.08	-1247	43.227	287.09	-1258.2	39.52	226.63	-1080.1	38.448	159.93	-1050.2	54.182	276.99	-990.12	64.452	217.75	-1243.7	1567.1	301.36	-1372.8	1297.5	314.29
52	0.2125	-1097.1	1256.2	320.64	-1178.3	1527.1	462.85	-1186.8	1526.9	131.77	-1190.6	1822.9	262.94	-1179	1012.6	451.36	NaN	NaN	NaN	-1376.7	1024.1	359.52	-1376.5	1031.1	266.98	-1254.7	928.56	513.34	-1247.6	937.93	124.76	-1270.3	1094.8	487.25	-1255.6	1092.2	153.16	-1384.8	990.95	325.23	-1131.5	725.62	519.24	-1059.5	672.03	469.66	-1114.6	637.76	501.65	-1080.7	758.18	485.76	-1106.4	542.09	486.16	-1087.3	529.6	353.69	-1299.9	397.21	453.3	-1291.8	308.22	453.59	-1344.5	334.36	433.21	-1243.2	366.37	472.02	-1370.2	238.85	429.29	-1338.4	254.73	343.81	-1448.9	237.44	356.73	-1451.6	204.34	327.43	-1465.3	210.82	390.84	-1344.3	106.26	463.78	-1292.7	93.183	352.34	-1242.4	78.84	408.27	-1210.7	700.06	134.84	-1119.8	639.19	154.88	-1186.9	608.96	151.9	-1135.9	727.2	136.87	-1160.8	521.15	159.66	-1227.3	321.06	166.62	-1160	261.87	169.53	-1229.8	250.01	186.04	-1162.5	331.91	155.08	-1202.6	112.24	197.83	-1166.4	130.02	281.55	-1259.3	66.89	256.13	-1247.1	43.527	287.21	-1258.1	39.704	226.64	-1080.1	38.448	159.95	-1050.1	54.058	277.05	-990.04	64.266	217.78	-1238.2	1568.1	301.13	-1367.2	1298.5	313.7
53	0.21667	-1091.7	1257.4	320.43	-1172.9	1528.1	462.63	-1181	1528.1	131.64	-1184.9	1823.9	263.17	-1173.4	1013.9	450.87	NaN	NaN	NaN	-1371.3	1025.2	359.37	-1371.1	1032.1	266.83	-1248.7	929.89	513.18	-1242.9	938.69	124.6	-1264.7	1096	486.87	-1250.3	1093	152.85	-1379.4	992.05	325.12	-1123.6	727.92	518.69	-1051.4	675.01	468.68	-1106.1	640.22	501.01	-1073.2	760.94	484.95	-1097.3	544.33	485.39	-1078.4	532.17	353.08	-1287.9	394.98	452.81	-1277.5	306.23	453.06	-1331.2	331.38	432.73	-1230.8	365.62	471.54	-1354.3	235.01	428.98	-1323.4	252.13	343.4	-1433.6	231.73	356.66	-1435.6	198.42	327.35	-1449	204.6	390.83	-1325.1	103.43	463.62	-1273.3	91.816	351.96	-1223.2	78.814	407.89	-1207.7	700.6	134.83	-1117.3	639.05	154.9	-1184.6	609.33	151.9	-1132.7	727.21	136.86	-1159.3	521.23	159.73	-1226.6	321.34	166.79	-1159.4	261.92	169.57	-1229.3	250.33	186.2	-1161.7	331.98	155.12	-1202.4	112.39	197.92	-1166.2	130.06	281.63	-1259.4	67.102	256.17	-1247.2	43.824	287.33	-1258	39.886	226.66	-1080	38.447	159.96	-1050	53.934	277.1	-989.95	64.079	217.81	-1232.6	1569.1	300.9	-1361.7	1299.4	313.12
54	0.22083	-1086.3	1258.5	320.22	-1167.5	1529.1	462.42	-1175.3	1529.4	131.51	-1179.1	1824.9	263.43	-1167.7	1015.1	450.39	NaN	NaN	NaN	-1365.9	1026.3	359.22	-1365.7	1033.2	266.68	-1242.9	931.21	513.04	-1238.1	939.43	124.46	-1259.1	1097.2	486.51	-1245	1093.9	152.55	-1374.1	993.13	325.01	-1116	730.16	518.13	-1043.6	677.91	467.72	-1097.8	642.61	500.36	-1065.9	763.61	484.15	-1088.5	546.51	484.61	-1069.8	534.67	352.47	-1275.9	392.57	452.29	-1263.2	304.1	452.54	-1317.8	328.21	432.22	-1218.5	364.74	471.05	-1338.3	230.99	428.67	-1308	249.27	343.03	-1418	225.74	356.56	-1419.2	192.26	327.25	-1432.5	198.13	390.8	-1305.8	100.53	463.53	-1253.7	90.356	351.71	-1203.5	78.828	407.62	-1204.7	701.15	134.82	-1114.9	638.91	154.93	-1182.2	609.71	151.9	-1129.5	727.21	136.87	-1157.8	521.32	159.81	-1225.8	321.61	166.94	-1158.9	261.98	169.61	-1228.8	250.65	186.35	-1161	332.05	155.16	-1202.2	112.54	198	-1166	130.1	281.72	-1259.4	67.318	256.2	-1247.4	44.11	287.45	-1257.9	40.065	226.68	-1080	38.445	159.98	-1050	53.813	277.15	-989.87	63.891	217.84	-1227.1	1570.1	300.68	-1356.1	1300.4	312.54
55	0.225	-1080.8	1259.6	320.02	-1162.1	1530.1	462.22	-1169.5	1530.6	131.4	-1173.3	1825.9	263.73	-1162.1	1016.3	449.93	NaN	NaN	NaN	-1360.5	1027.4	359.07	-1360.3	1034.2	266.54	-1237	932.5	512.89	-1233.4	940.16	124.33	-1253.5	1098.4	486.16	-1239.6	1094.7	152.28	-1368.8	994.2	324.91	-1108.4	732.33	517.57	-1035.9	680.7	466.77	-1089.8	644.94	499.7	-1058.7	766.18	483.37	-1079.9	548.63	483.82	-1061.4	537.07	351.86	-1263.9	389.98	451.76	-1248.8	301.86	452.05	-1304.4	324.87	431.7	-1206.2	363.73	470.58	-1322	226.85	428.39	-1292.4	246.19	342.7	-1402	219.52	356.43	-1402.5	185.9	327.12	-1415.6	191.45	390.75	-1286.3	97.591	463.52	-1233.9	88.832	351.58	-1183.4	78.895	407.46	-1201.7	701.7	134.82	-1112.4	638.77	154.97	-1179.9	610.08	151.91	-1126.4	727.21	136.88	-1156.3	521.4	159.9	-1225.1	321.89	167.08	-1158.4	262.05	169.65	-1228.2	250.96	186.49	-1160.2	332.12	155.22	-1202	112.69	198.09	-1165.8	130.15	281.8	-1259.4	67.533	256.23	-1247.5	44.376	287.56	-1257.8	40.241	226.7	-1080	38.441	159.99	-1049.9	53.694	277.21	-989.77	63.703	217.88	-1221.6	1571	300.47	-1350.5	1301.3	311.96
56	0.22917	-1075.4	1260.7	319.83	-1156.8	1531	462.03	-1163.7	1531.8	131.3	-1167.5	1826.8	264.06	-1156.5	1017.5	449.49	NaN	NaN	NaN	-1355.1	1028.4	358.92	-1354.9	1035.2	266.4	-1231.1	933.75	512.76	-1228.6	940.88	124.22	-1247.8	1099.5	485.83	-1234.3	1095.5	152.01	-1363.4	995.25	324.8	-1101	734.42	517.01	-1028.3	683.37	465.85	-1081.9	647.19	499.03	-1051.6	768.65	482.62	-1071.6	550.66	483.03	-1053.2	539.39	351.25	-1252	387.23	451.22	-1234.5	299.52	451.57	-1290.9	321.37	431.17	-1193.9	362.62	470.12	-1305.6	222.6	428.11	-1276.5	242.91	342.4	-1385.7	213.11	356.27	-1385.4	179.37	326.97	-1398.3	184.6	390.68	-1266.7	94.645	463.6	-1213.9	87.276	351.59	-1163.1	79.029	407.44	-1198.7	702.24	134.82	-1110	638.62	155.01	-1177.6	610.46	151.91	-1123.2	727.2	136.9	-1154.9	521.49	160	-1224.4	322.16	167.21	-1157.8	262.12	169.7	-1227.7	251.27	186.61	-1159.4	332.19	155.28	-1201.8	112.84	198.17	-1165.6	130.2	281.89	-1259.4	67.745	256.24	-1247.6	44.617	287.65	-1257.7	40.415	226.73	-1079.9	38.435	160.01	-1049.8	53.578	277.26	-989.68	63.514	217.91	-1216.1	1571.9	300.27	-1345	1302.2	311.39
